STARTFONT 2.1
COMMENT Copyright (C) 1990-1991 EWT Consulting
COMMENT Portions Copyright (C) 1994-1995 Cronyx Ltd.
COMMENT Changes Copyright (C) 1996 by Andrey A. Chernov, Moscow, Russia.
COMMENT Modified by Serge Vakulenko, <vak@cronyx.ru>
COMMENT This software may be used, modified, copied, distributed, and sold,
COMMENT in both source and binary form provided that the copyright
COMMENT and these terms are retained. Under no circumstances is the author
COMMENT responsible for the proper functioning of this software, nor does
COMMENT the author assume any responsibility for damages incurred with its use.
COMMENT $XFree86: xc/fonts/bdf/cyrillic/crox4tbo.bdf,v 3.2 1996/09/01 12:18:32 dawes Exp $
FONT -Cronyx-Times-Bold-I-Normal--20-140-100-100-P-74-KOI8-R
SIZE 14 96 96
FONTBOUNDINGBOX 25 21 -1 -5
STARTPROPERTIES 19
DEFAULT_CHAR 32
FONT_ASCENT 16
FONT_DESCENT 5
SPACING "P"
FONTNAME_REGISTRY ""
FOUNDRY "Cronyx"
FAMILY_NAME "Times"
WEIGHT_NAME "Bold"
SLANT "I"
SETWIDTH_NAME "Normal"
ADD_STYLE_NAME ""
AVERAGE_WIDTH 74
CHARSET_REGISTRY "KOI8"
CHARSET_ENCODING "R"
PIXEL_SIZE 20
POINT_SIZE 140
RESOLUTION_X 100
RESOLUTION_Y 100
COPYRIGHT "Copyright (C) 1990, 1991 EWT Consulting, Portions Copyright (C) 1994 Cronyx Ltd., Portions Copyright (C) 1996 by Andrey A. Chernov, Moscow, Russia."
ENDPROPERTIES
CHARS 224
STARTCHAR space
ENCODING 32
SWIDTH 238 0
DWIDTH 5 0
BBX 12 21 -1 -5
BITMAP
0000
0000
0000
0000
0000
0000
0000
0000
0000
0000
0000
0000
0000
0000
0000
0000
0000
0000
0000
0000
0000
ENDCHAR
STARTCHAR exclam
ENCODING 33
SWIDTH 238 0
DWIDTH 5 0
BBX 12 21 -1 -5
BITMAP
0000
0000
0000
01C0
01C0
01C0
0380
0380
0380
0700
0700
0700
0000
0000
0E00
1C00
0000
0000
0000
0000
0000
ENDCHAR
STARTCHAR quotedbl
ENCODING 34
SWIDTH 428 0
DWIDTH 9 0
BBX 16 21 -1 -5
BITMAP
0000
0000
0000
01DC
01DC
01DC
03B8
0000
0000
0000
0000
0000
0000
0000
0000
0000
0000
0000
0000
0000
0000
ENDCHAR
STARTCHAR numbersign
ENCODING 35
SWIDTH 476 0
DWIDTH 10 0
BBX 17 21 -1 -5
BITMAP
000000
000000
003F00
007E00
007E00
007E00
03FE00
01F800
01F800
03F000
03F000
0FF800
0FC000
0FC000
0FC000
1F8000
000000
000000
000000
000000
000000
ENDCHAR
STARTCHAR dollar
ENCODING 36
SWIDTH 476 0
DWIDTH 10 0
BBX 17 21 -1 -5
BITMAP
000000
001800
001800
007C00
00FE00
01F600
03EC00
03E000
01F000
01F000
00F000
00F800
0DF000
0DF000
0FE000
0F8000
030000
030000
000000
000000
000000
ENDCHAR
STARTCHAR percent
ENCODING 37
SWIDTH 761 0
DWIDTH 16 0
BBX 23 21 -1 -5
BITMAP
000000
000000
000000
007870
00FFE0
01CDC0
039B80
03B700
01EE00
001C00
003BC0
007760
00FCC0
01DCC0
039D80
071E00
000000
000000
000000
000000
000000
ENDCHAR
STARTCHAR ampersand
ENCODING 38
SWIDTH 714 0
DWIDTH 15 0
BBX 22 21 -1 -5
BITMAP
000000
000000
000000
003E00
007700
007300
00EE00
007C00
0079E0
01F180
03B980
071F00
0E1C00
0E1C00
073EC0
07EF00
000000
000000
000000
000000
000000
ENDCHAR
STARTCHAR quoteright
ENCODING 39
SWIDTH 238 0
DWIDTH 5 0
BBX 12 21 -1 -5
BITMAP
0000
0000
0000
01C0
01C0
01C0
0380
0000
0000
0000
0000
0000
0000
0000
0000
0000
0000
0000
0000
0000
0000
ENDCHAR
STARTCHAR parenleft
ENCODING 40
SWIDTH 333 0
DWIDTH 7 0
BBX 14 21 -1 -5
BITMAP
0000
0018
0038
0060
00E0
00E0
0180
0380
0380
0700
0700
0700
0E00
0E00
0600
0E00
0E00
0600
0E00
0600
0000
ENDCHAR
STARTCHAR parenright
ENCODING 41
SWIDTH 333 0
DWIDTH 7 0
BBX 14 21 -1 -5
BITMAP
0000
00C0
00E0
00C0
00E0
00E0
00C0
00E0
00E0
01C0
01C0
01C0
0380
0380
0300
0E00
0E00
0C00
3800
3000
0000
ENDCHAR
STARTCHAR asterisk
ENCODING 42
SWIDTH 476 0
DWIDTH 10 0
BBX 17 21 -1 -5
BITMAP
000000
000000
001800
00FC00
00FC00
007800
01F800
01F800
006000
000000
000000
000000
000000
000000
000000
000000
000000
000000
000000
000000
000000
ENDCHAR
STARTCHAR plus
ENCODING 43
SWIDTH 523 0
DWIDTH 11 0
BBX 18 21 -1 -5
BITMAP
000000
000000
000000
000000
000000
003800
007000
007000
03FE00
07FC00
00E000
00E000
01C000
000000
000000
000000
000000
000000
000000
000000
000000
ENDCHAR
STARTCHAR comma
ENCODING 44
SWIDTH 238 0
DWIDTH 5 0
BBX 12 21 -1 -5
BITMAP
0000
0000
0000
0000
0000
0000
0000
0000
0000
0000
0000
0000
0000
0000
0E00
1C00
0C00
0C00
3000
0000
0000
ENDCHAR
STARTCHAR minus
ENCODING 45
SWIDTH 333 0
DWIDTH 7 0
BBX 14 21 -1 -5
BITMAP
0000
0000
0000
0000
0000
0000
0000
0000
03E0
07C0
0000
0000
0000
0000
0000
0000
0000
0000
0000
0000
0000
ENDCHAR
STARTCHAR period
ENCODING 46
SWIDTH 238 0
DWIDTH 5 0
BBX 12 21 -1 -5
BITMAP
0000
0000
0000
0000
0000
0000
0000
0000
0000
0000
0000
0000
0000
0000
0E00
1C00
0000
0000
0000
0000
0000
ENDCHAR
STARTCHAR slash
ENCODING 47
SWIDTH 285 0
DWIDTH 6 0
BBX 13 21 -1 -5
BITMAP
0000
0000
0038
0070
0070
0070
01C0
01C0
01C0
0380
0700
0700
0E00
0E00
1C00
3800
3800
3800
0000
0000
0000
ENDCHAR
STARTCHAR zero
ENCODING 48
SWIDTH 476 0
DWIDTH 10 0
BBX 17 21 -1 -5
BITMAP
000000
000000
000000
007800
00FC00
01CE00
039C00
039C00
039C00
073800
073800
073800
0E7000
0E7000
07E000
078000
000000
000000
000000
000000
000000
ENDCHAR
STARTCHAR one
ENCODING 49
SWIDTH 476 0
DWIDTH 10 0
BBX 17 21 -1 -5
BITMAP
000000
000000
000000
001800
003800
00F800
007000
007000
007000
00E000
00E000
00E000
01C000
01C000
01C000
0FE000
000000
000000
000000
000000
000000
ENDCHAR
STARTCHAR two
ENCODING 50
SWIDTH 476 0
DWIDTH 10 0
BBX 17 21 -1 -5
BITMAP
000000
000000
000000
007800
00FC00
019E00
001C00
001C00
003800
006000
00E000
01C000
030000
063000
0FF000
1FC000
000000
000000
000000
000000
000000
ENDCHAR
STARTCHAR three
ENCODING 51
SWIDTH 476 0
DWIDTH 10 0
BBX 17 21 -1 -5
BITMAP
000000
000000
000000
007800
00DC00
018E00
001C00
001800
003000
01F000
007800
003800
007000
007000
0EE000
0F8000
000000
000000
000000
000000
000000
ENDCHAR
STARTCHAR four
ENCODING 52
SWIDTH 476 0
DWIDTH 10 0
BBX 17 21 -1 -5
BITMAP
000000
000000
000000
001C00
001C00
003C00
007800
00F800
00F800
037000
037000
07F800
0FF000
00E000
00E000
01C000
000000
000000
000000
000000
000000
ENDCHAR
STARTCHAR five
ENCODING 53
SWIDTH 476 0
DWIDTH 10 0
BBX 17 21 -1 -5
BITMAP
000000
000000
000000
007E00
007E00
00C000
018000
03F000
03F800
007800
003800
003800
007000
007000
0EE000
0F8000
000000
000000
000000
000000
000000
ENDCHAR
STARTCHAR six
ENCODING 54
SWIDTH 476 0
DWIDTH 10 0
BBX 17 21 -1 -5
BITMAP
000000
000000
000000
003C00
007000
00E000
01C000
038000
03F000
07F000
073800
073800
0E7000
0E7000
07E000
078000
000000
000000
000000
000000
000000
ENDCHAR
STARTCHAR seven
ENCODING 55
SWIDTH 476 0
DWIDTH 10 0
BBX 17 21 -1 -5
BITMAP
000000
000000
000000
00FE00
00FE00
019C00
003800
007000
007000
00E000
01C000
01C000
038000
070000
070000
0E0000
000000
000000
000000
000000
000000
ENDCHAR
STARTCHAR eight
ENCODING 56
SWIDTH 476 0
DWIDTH 10 0
BBX 17 21 -1 -5
BITMAP
000000
000000
000000
007800
00FC00
01CE00
039C00
03D800
01F000
01F000
037800
073800
0E7000
0E7000
07E000
078000
000000
000000
000000
000000
000000
ENDCHAR
STARTCHAR nine
ENCODING 57
SWIDTH 476 0
DWIDTH 10 0
BBX 17 21 -1 -5
BITMAP
000000
000000
000000
007800
00FC00
01CE00
039C00
039C00
039C00
03F800
01F800
003800
006000
00E000
01C000
0F0000
000000
000000
000000
000000
000000
ENDCHAR
STARTCHAR colon
ENCODING 58
SWIDTH 285 0
DWIDTH 6 0
BBX 13 21 -1 -5
BITMAP
0000
0000
0000
0000
0000
0000
0000
0380
0380
0000
0000
0000
0000
0000
0E00
1C00
0000
0000
0000
0000
0000
ENDCHAR
STARTCHAR semicolon
ENCODING 59
SWIDTH 285 0
DWIDTH 6 0
BBX 13 21 -1 -5
BITMAP
0000
0000
0000
0000
0000
0000
0000
0380
0380
0000
0000
0000
0000
0000
0E00
1C00
0C00
0C00
3000
0000
0000
ENDCHAR
STARTCHAR less
ENCODING 60
SWIDTH 523 0
DWIDTH 11 0
BBX 18 21 -1 -5
BITMAP
000000
000000
000000
000000
000000
000700
003C00
007800
01E000
078000
03C000
00F000
00F000
003800
000000
000000
000000
000000
000000
000000
000000
ENDCHAR
STARTCHAR equal
ENCODING 61
SWIDTH 523 0
DWIDTH 11 0
BBX 18 21 -1 -5
BITMAP
000000
000000
000000
000000
000000
000000
000000
03FE00
03FE00
000000
000000
07FC00
0FF800
000000
000000
000000
000000
000000
000000
000000
000000
ENDCHAR
STARTCHAR greater
ENCODING 62
SWIDTH 523 0
DWIDTH 11 0
BBX 18 21 -1 -5
BITMAP
000000
000000
000000
000000
000000
01C000
01E000
00F000
003C00
003C00
007800
01E000
078000
0E0000
000000
000000
000000
000000
000000
000000
000000
ENDCHAR
STARTCHAR question
ENCODING 63
SWIDTH 428 0
DWIDTH 9 0
BBX 16 21 -1 -5
BITMAP
0000
0000
0000
00F8
019C
01DC
03B8
0038
0070
00E0
01C0
0180
0300
0000
0380
0700
0000
0000
0000
0000
0000
ENDCHAR
STARTCHAR at
ENCODING 64
SWIDTH 857 0
DWIDTH 18 0
BBX 25 21 -1 -5
BITMAP
00000000
00000000
00000000
000FC000
003CF000
00703800
01C03800
01CFF800
039FDC00
0773B800
07733800
07773800
0E7FE000
073BC000
07000000
07000000
03C70000
00FC0000
00000000
00000000
00000000
ENDCHAR
STARTCHAR A
ENCODING 65
SWIDTH 619 0
DWIDTH 13 0
BBX 20 21 -1 -5
BITMAP
000000
000000
000000
001800
001C00
003C00
007C00
007C00
00DC00
019C00
031C00
03FE00
061C00
0C1C00
0C0E00
3C3E00
000000
000000
000000
000000
000000
ENDCHAR
STARTCHAR B
ENCODING 66
SWIDTH 666 0
DWIDTH 14 0
BBX 21 21 -1 -5
BITMAP
000000
000000
000000
01FE00
00E380
00E1C0
01C380
01C380
01C700
03FE00
038700
038380
070700
070700
070E00
1FF000
000000
000000
000000
000000
000000
ENDCHAR
STARTCHAR C
ENCODING 67
SWIDTH 666 0
DWIDTH 14 0
BBX 21 21 -1 -5
BITMAP
000000
000000
000000
001FC0
0079C0
00E0C0
01C000
038000
038000
070000
070000
070000
070000
070300
03CE00
01F000
000000
000000
000000
000000
000000
ENDCHAR
STARTCHAR D
ENCODING 68
SWIDTH 714 0
DWIDTH 15 0
BBX 22 21 -1 -5
BITMAP
000000
000000
000000
01FF00
00E1C0
00E0E0
01C1C0
01C0E0
01C0E0
0381C0
0381C0
0381C0
070700
070700
070E00
1FF000
000000
000000
000000
000000
000000
ENDCHAR
STARTCHAR E
ENCODING 69
SWIDTH 619 0
DWIDTH 13 0
BBX 20 21 -1 -5
BITMAP
000000
000000
000000
01FF80
00E180
00E000
01C000
01C000
01C600
03FC00
038C00
038000
070000
070000
070600
1FF800
000000
000000
000000
000000
000000
ENDCHAR
STARTCHAR F
ENCODING 70
SWIDTH 571 0
DWIDTH 12 0
BBX 19 21 -1 -5
BITMAP
000000
000000
000000
01FF80
00E180
00E000
01C000
01C000
01C600
03FC00
038C00
038000
070000
070000
070000
1F0000
000000
000000
000000
000000
000000
ENDCHAR
STARTCHAR G
ENCODING 71
SWIDTH 714 0
DWIDTH 15 0
BBX 22 21 -1 -5
BITMAP
000000
000000
000000
001FC0
0079C0
00E0C0
01C000
038000
038000
070000
0707C0
070380
070700
070700
03CF00
01F800
000000
000000
000000
000000
000000
ENDCHAR
STARTCHAR H
ENCODING 72
SWIDTH 714 0
DWIDTH 15 0
BBX 22 21 -1 -5
BITMAP
000000
000000
000000
01F1F0
00E0E0
00E0E0
01C1C0
01C1C0
01C1C0
03FF80
038380
038380
070700
070700
070700
1F1F00
000000
000000
000000
000000
000000
ENDCHAR
STARTCHAR I
ENCODING 73
SWIDTH 333 0
DWIDTH 7 0
BBX 14 21 -1 -5
BITMAP
0000
0000
0000
01F0
00E0
00E0
01C0
01C0
01C0
0380
0380
0380
0700
0700
0700
1F00
0000
0000
0000
0000
0000
ENDCHAR
STARTCHAR J
ENCODING 74
SWIDTH 428 0
DWIDTH 9 0
BBX 16 21 -1 -5
BITMAP
0000
0000
0000
007C
0038
0038
0070
0070
0070
00E0
00E0
00E0
01C0
0FC0
0FC0
0F00
0000
0000
0000
0000
0000
ENDCHAR
STARTCHAR K
ENCODING 75
SWIDTH 666 0
DWIDTH 14 0
BBX 21 21 -1 -5
BITMAP
000000
000000
000000
01F7E0
00E380
00E700
01DC00
01F800
01F800
03F800
03BC00
039C00
071C00
071E00
070E00
1F7F00
000000
000000
000000
000000
000000
ENDCHAR
STARTCHAR L
ENCODING 76
SWIDTH 619 0
DWIDTH 13 0
BBX 20 21 -1 -5
BITMAP
000000
000000
000000
01F000
00E000
00E000
01C000
01C000
01C000
038000
038000
038000
070000
070000
070600
1FF800
000000
000000
000000
000000
000000
ENDCHAR
STARTCHAR M
ENCODING 77
SWIDTH 809 0
DWIDTH 17 0
BBX 24 21 -1 -5
BITMAP
000000
000000
000000
01F07C
00F078
00F8F8
01F1F0
01F1F0
01BB70
0376E0
0376E0
033CE0
0679C0
0679C0
0631C0
1E67C0
000000
000000
000000
000000
000000
ENDCHAR
STARTCHAR N
ENCODING 78
SWIDTH 714 0
DWIDTH 15 0
BBX 22 21 -1 -5
BITMAP
000000
000000
000000
01F0F0
00F060
00F860
01F8C0
01BCC0
019CC0
033D80
031F80
030F80
060F00
060F00
060700
1E0600
000000
000000
000000
000000
000000
ENDCHAR
STARTCHAR O
ENCODING 79
SWIDTH 714 0
DWIDTH 15 0
BBX 22 21 -1 -5
BITMAP
000000
000000
000000
001F00
0071C0
00E0E0
01C1C0
0380E0
0380E0
0701C0
0701C0
0701C0
070700
070700
038E00
01F000
000000
000000
000000
000000
000000
ENDCHAR
STARTCHAR P
ENCODING 80
SWIDTH 571 0
DWIDTH 12 0
BBX 19 21 -1 -5
BITMAP
000000
000000
000000
01FE00
00E380
00E1C0
01C380
01C380
01C700
03F800
038000
038000
070000
070000
070000
1F0000
000000
000000
000000
000000
000000
ENDCHAR
STARTCHAR Q
ENCODING 81
SWIDTH 714 0
DWIDTH 15 0
BBX 22 21 -1 -5
BITMAP
000000
000000
000000
001F00
0071C0
00E0E0
01C1C0
0380E0
0380E0
0701C0
0701C0
0701C0
070700
070700
038E00
01F000
00F000
003800
001C00
000000
000000
ENDCHAR
STARTCHAR R
ENCODING 82
SWIDTH 619 0
DWIDTH 13 0
BBX 20 21 -1 -5
BITMAP
000000
000000
000000
01FF00
00E380
00E1C0
01C380
01C380
01C700
03FC00
039C00
038E00
071C00
070E00
070E00
1F0E00
000000
000000
000000
000000
000000
ENDCHAR
STARTCHAR S
ENCODING 83
SWIDTH 523 0
DWIDTH 11 0
BBX 18 21 -1 -5
BITMAP
000000
000000
000000
007E00
00EE00
01C600
038C00
03C000
01E000
01F000
007800
003C00
0C3800
0C3800
0E7000
1FC000
000000
000000
000000
000000
000000
ENDCHAR
STARTCHAR T
ENCODING 84
SWIDTH 619 0
DWIDTH 13 0
BBX 20 21 -1 -5
BITMAP
000000
000000
000000
01FFC0
019CC0
001C00
003800
003800
003800
007000
007000
007000
00E000
00E000
00E000
03E000
000000
000000
000000
000000
000000
ENDCHAR
STARTCHAR U
ENCODING 85
SWIDTH 714 0
DWIDTH 15 0
BBX 22 21 -1 -5
BITMAP
000000
000000
000000
01F0F0
00E060
00E060
01C0C0
01C0C0
01C0C0
038180
038180
038180
070300
038600
03CE00
01F000
000000
000000
000000
000000
000000
ENDCHAR
STARTCHAR V
ENCODING 86
SWIDTH 619 0
DWIDTH 13 0
BBX 20 21 -1 -5
BITMAP
000000
000000
000000
03E3E0
01C1C0
01C180
01C300
01C600
01C600
01D800
01D800
00F000
01E000
01E000
00C000
018000
000000
000000
000000
000000
000000
ENDCHAR
STARTCHAR W
ENCODING 87
SWIDTH 857 0
DWIDTH 18 0
BBX 25 21 -1 -5
BITMAP
00000000
00000000
00000000
03EF8F00
01C70600
01C70600
01C71800
01C71800
01C71800
01DF6000
01DF6000
00F3C000
01E78000
01E78000
00C30000
01860000
00000000
00000000
00000000
00000000
00000000
ENDCHAR
STARTCHAR X
ENCODING 88
SWIDTH 619 0
DWIDTH 13 0
BBX 20 21 -1 -5
BITMAP
000000
000000
000000
03F3E0
00E1C0
007180
00F600
007C00
003C00
007800
00F800
00DC00
033C00
061C00
0E0E00
3E3E00
000000
000000
000000
000000
000000
ENDCHAR
STARTCHAR Y
ENCODING 89
SWIDTH 619 0
DWIDTH 13 0
BBX 20 21 -1 -5
BITMAP
000000
000000
000000
03E1E0
01C0C0
00E180
01C300
00E600
007C00
00F800
007000
007000
00E000
00E000
00E000
03E000
000000
000000
000000
000000
000000
ENDCHAR
STARTCHAR Z
ENCODING 90
SWIDTH 619 0
DWIDTH 13 0
BBX 20 21 -1 -5
BITMAP
000000
000000
000000
00FFC0
00C380
000380
000E00
001E00
001C00
007000
00F000
00E000
038000
078000
070300
1FFC00
000000
000000
000000
000000
000000
ENDCHAR
STARTCHAR bracketleft
ENCODING 91
SWIDTH 333 0
DWIDTH 7 0
BBX 14 21 -1 -5
BITMAP
0000
0000
007C
00E0
00E0
00E0
01C0
01C0
01C0
0380
0380
0380
0700
0700
0700
0E00
0E00
0E00
1F00
0000
0000
ENDCHAR
STARTCHAR backslash
ENCODING 92
SWIDTH 285 0
DWIDTH 6 0
BBX 13 21 -1 -5
BITMAP
0000
0000
0000
0380
0380
0380
0380
0380
0380
0380
0380
0380
0380
0380
0380
0700
0000
0000
0000
0000
0000
ENDCHAR
STARTCHAR bracketright
ENCODING 93
SWIDTH 333 0
DWIDTH 7 0
BBX 14 21 -1 -5
BITMAP
0000
0000
01F0
00E0
00E0
00E0
01C0
01C0
01C0
0380
0380
0380
0700
0700
0700
0E00
0E00
0E00
7C00
0000
0000
ENDCHAR
STARTCHAR asciicircum
ENCODING 94
SWIDTH 476 0
DWIDTH 10 0
BBX 17 21 -1 -5
BITMAP
000000
000000
001800
007800
00FC00
01CE00
000000
000000
000000
000000
000000
000000
000000
000000
000000
000000
000000
000000
000000
000000
000000
ENDCHAR
STARTCHAR underscore
ENCODING 95
SWIDTH 476 0
DWIDTH 10 0
BBX 17 21 -1 -5
BITMAP
000000
000000
000000
000000
000000
000000
000000
000000
000000
000000
000000
000000
000000
000000
000000
000000
000000
3FF000
000000
000000
000000
ENDCHAR
STARTCHAR quoteleft
ENCODING 96
SWIDTH 333 0
DWIDTH 7 0
BBX 14 21 -1 -5
BITMAP
0000
0000
00E0
00E0
0030
0000
0000
0000
0000
0000
0000
0000
0000
0000
0000
0000
0000
0000
0000
0000
0000
ENDCHAR
STARTCHAR a
ENCODING 97
SWIDTH 476 0
DWIDTH 10 0
BBX 17 21 -1 -5
BITMAP
000000
000000
000000
000000
000000
000000
000000
00F800
039C00
073800
00F800
03B800
0E7000
0E7000
0FF000
0FF000
000000
000000
000000
000000
000000
ENDCHAR
STARTCHAR b
ENCODING 98
SWIDTH 523 0
DWIDTH 11 0
BBX 18 21 -1 -5
BITMAP
000000
000000
003000
01E000
00E000
00E000
01C000
01FC00
01EE00
038E00
038E00
038E00
071C00
071C00
073800
07E000
000000
000000
000000
000000
000000
ENDCHAR
STARTCHAR c
ENCODING 99
SWIDTH 428 0
DWIDTH 9 0
BBX 16 21 -1 -5
BITMAP
0000
0000
0000
0000
0000
0000
0000
00F8
01DC
0738
0700
0700
0E00
0E30
0770
07C0
0000
0000
0000
0000
0000
ENDCHAR
STARTCHAR d
ENCODING 100
SWIDTH 523 0
DWIDTH 11 0
BBX 18 21 -1 -5
BITMAP
000000
000000
000180
000F00
000700
000700
000E00
00FE00
01DE00
071C00
071C00
071C00
0E3800
0E3800
077800
07F800
000000
000000
000000
000000
000000
ENDCHAR
STARTCHAR e
ENCODING 101
SWIDTH 428 0
DWIDTH 9 0
BBX 16 21 -1 -5
BITMAP
0000
0000
0000
0000
0000
0000
0000
00F0
01F8
0738
07F8
0700
0E00
0E30
0770
07C0
0000
0000
0000
0000
0000
ENDCHAR
STARTCHAR f
ENCODING 102
SWIDTH 333 0
DWIDTH 7 0
BBX 14 21 -1 -5
BITMAP
0000
0000
003C
00F8
00E0
00E0
03F0
01C0
01C0
0380
0380
0380
0700
0700
0700
1F00
0000
0000
0000
0000
0000
ENDCHAR
STARTCHAR g
ENCODING 103
SWIDTH 523 0
DWIDTH 11 0
BBX 18 21 -1 -5
BITMAP
000000
000000
000000
000000
000000
000000
000000
007800
00FF00
039C00
039C00
01F800
01E000
038000
070000
0FF000
1C7800
1C3800
38E000
1FC000
000000
ENDCHAR
STARTCHAR h
ENCODING 104
SWIDTH 523 0
DWIDTH 11 0
BBX 18 21 -1 -5
BITMAP
000000
000000
003000
01E000
00E000
00E000
01C000
01FC00
01EE00
039C00
039C00
039C00
073800
073800
073800
1F7800
000000
000000
000000
000000
000000
ENDCHAR
STARTCHAR i
ENCODING 105
SWIDTH 285 0
DWIDTH 6 0
BBX 13 21 -1 -5
BITMAP
0000
0000
0070
00E0
0000
0000
0000
01C0
03C0
0380
0380
0380
0700
0700
0700
1F00
0000
0000
0000
0000
0000
ENDCHAR
STARTCHAR j
ENCODING 106
SWIDTH 238 0
DWIDTH 5 0
BBX 12 21 -1 -5
BITMAP
0000
0000
0070
00E0
0000
0000
0000
01C0
03C0
0380
0380
0380
0700
0700
0700
0E00
0E00
0E00
5C00
3800
0000
ENDCHAR
STARTCHAR k
ENCODING 107
SWIDTH 476 0
DWIDTH 10 0
BBX 17 21 -1 -5
BITMAP
000000
000000
003000
01E000
00E000
00E000
01C000
01FE00
01D800
03E000
03C000
03E000
07E000
07E000
077000
1FF000
000000
000000
000000
000000
000000
ENDCHAR
STARTCHAR l
ENCODING 108
SWIDTH 285 0
DWIDTH 6 0
BBX 13 21 -1 -5
BITMAP
0000
0000
0030
01E0
00E0
00E0
01C0
01C0
01C0
0380
0380
0380
0700
0700
0700
1F00
0000
0000
0000
0000
0000
ENDCHAR
STARTCHAR m
ENCODING 109
SWIDTH 666 0
DWIDTH 14 0
BBX 21 21 -1 -5
BITMAP
000000
000000
000000
000000
000000
000000
000000
00FB80
03FFC0
03BB80
03BB80
03BB80
077700
077700
077700
1FFF00
000000
000000
000000
000000
000000
ENDCHAR
STARTCHAR n
ENCODING 110
SWIDTH 523 0
DWIDTH 11 0
BBX 18 21 -1 -5
BITMAP
000000
000000
000000
000000
000000
000000
000000
01FC00
03EE00
039C00
039C00
039C00
073800
073800
073800
1F7800
000000
000000
000000
000000
000000
ENDCHAR
STARTCHAR o
ENCODING 111
SWIDTH 476 0
DWIDTH 10 0
BBX 17 21 -1 -5
BITMAP
000000
000000
000000
000000
000000
000000
000000
00F800
019C00
071C00
071C00
071C00
0E3800
0E3800
073000
07C000
000000
000000
000000
000000
000000
ENDCHAR
STARTCHAR p
ENCODING 112
SWIDTH 523 0
DWIDTH 11 0
BBX 18 21 -1 -5
BITMAP
000000
000000
000000
000000
000000
000000
000000
01FC00
03EE00
038E00
038E00
038E00
071C00
071C00
07B800
0FE000
0E0000
0E0000
1C0000
3E0000
000000
ENDCHAR
STARTCHAR q
ENCODING 113
SWIDTH 523 0
DWIDTH 11 0
BBX 18 21 -1 -5
BITMAP
000000
000000
000000
000000
000000
000000
000000
00FE00
01DE00
071C00
071C00
071C00
0E3800
0E3800
077800
07F000
007000
007000
00E000
01F000
000000
ENDCHAR
STARTCHAR r
ENCODING 114
SWIDTH 380 0
DWIDTH 8 0
BBX 15 21 -1 -5
BITMAP
0000
0000
0000
0000
0000
0000
0000
01F8
03F8
03B0
0380
0380
0700
0700
0700
1F00
0000
0000
0000
0000
0000
ENDCHAR
STARTCHAR s
ENCODING 115
SWIDTH 380 0
DWIDTH 8 0
BBX 15 21 -1 -5
BITMAP
0000
0000
0000
0000
0000
0000
0000
01F8
03B8
0730
0380
01C0
01C0
0CE0
0EE0
1F80
0000
0000
0000
0000
0000
ENDCHAR
STARTCHAR t
ENCODING 116
SWIDTH 333 0
DWIDTH 7 0
BBX 14 21 -1 -5
BITMAP
0000
0000
0000
0000
0060
0060
01C0
03F0
01C0
0380
0380
0380
0700
0700
07C0
0700
0000
0000
0000
0000
0000
ENDCHAR
STARTCHAR u
ENCODING 117
SWIDTH 523 0
DWIDTH 11 0
BBX 18 21 -1 -5
BITMAP
000000
000000
000000
000000
000000
000000
000000
03DE00
01CE00
039C00
039C00
039C00
073800
073800
077800
07F800
000000
000000
000000
000000
000000
ENDCHAR
STARTCHAR v
ENCODING 118
SWIDTH 523 0
DWIDTH 11 0
BBX 18 21 -1 -5
BITMAP
000000
000000
000000
000000
000000
000000
000000
03EF00
01C600
038C00
01D800
01D800
01E000
01E000
00C000
018000
000000
000000
000000
000000
000000
ENDCHAR
STARTCHAR w
ENCODING 119
SWIDTH 714 0
DWIDTH 15 0
BBX 22 21 -1 -5
BITMAP
000000
000000
000000
000000
000000
000000
000000
03FFF0
01CE60
039CC0
01FFC0
01FF80
01EF00
01EF00
00C600
018C00
000000
000000
000000
000000
000000
ENDCHAR
STARTCHAR x
ENCODING 120
SWIDTH 476 0
DWIDTH 10 0
BBX 17 21 -1 -5
BITMAP
000000
000000
000000
000000
000000
000000
000000
03FE00
01CC00
01F000
01E000
00E000
01E000
03E000
067000
1FF000
000000
000000
000000
000000
000000
ENDCHAR
STARTCHAR y
ENCODING 121
SWIDTH 523 0
DWIDTH 11 0
BBX 18 21 -1 -5
BITMAP
000000
000000
000000
000000
000000
000000
000000
03EF00
01C600
038C00
01D800
01D800
01E000
01E000
00C000
018000
038000
0F0000
3E0000
1C0000
000000
ENDCHAR
STARTCHAR z
ENCODING 122
SWIDTH 428 0
DWIDTH 9 0
BBX 16 21 -1 -5
BITMAP
0000
0000
0000
0000
0000
0000
0000
03FC
031C
0070
00E0
01C0
0700
0E00
0E30
1FE0
0000
0000
0000
0000
0000
ENDCHAR
STARTCHAR braceleft
ENCODING 123
SWIDTH 428 0
DWIDTH 9 0
BBX 16 21 -1 -5
BITMAP
0000
0000
0000
003C
0070
0070
00E0
00E0
00E0
01C0
01C0
0380
0380
0380
0380
0700
0700
0700
0E00
0780
0000
ENDCHAR
STARTCHAR bar
ENCODING 124
SWIDTH 238 0
DWIDTH 5 0
BBX 12 21 -1 -5
BITMAP
0000
0000
00E0
01C0
01C0
01C0
0380
0380
0380
0700
0700
0700
0E00
0E00
0E00
1C00
1C00
1C00
0000
0000
0000
ENDCHAR
STARTCHAR braceright
ENCODING 125
SWIDTH 428 0
DWIDTH 9 0
BBX 16 21 -1 -5
BITMAP
0000
0000
0000
01E0
0070
0070
00E0
00E0
00E0
01C0
01C0
00E0
0380
0380
0380
0700
0700
0700
0E00
3C00
0000
ENDCHAR
STARTCHAR asciitilde
ENCODING 126
SWIDTH 476 0
DWIDTH 10 0
BBX 17 21 -1 -5
BITMAP
000000
000000
007B00
01FE00
01BC00
000000
000000
000000
000000
000000
000000
000000
000000
000000
000000
000000
000000
000000
000000
000000
000000
ENDCHAR
STARTCHAR C177
ENCODING -1
SWIDTH 380 0
DWIDTH 8 0
BBX 15 21 -1 -5
BITMAP
0000
0000
007C
00F8
00F8
00F8
01F0
01F0
01F0
03E0
03E0
03E0
07C0
07C0
07C0
0F80
0000
0000
0000
0000
0000
ENDCHAR
STARTCHAR C200
ENCODING -1
SWIDTH 380 0
DWIDTH 8 0
BBX 15 21 -1 -5
BITMAP
0000
0000
007C
00F8
00F8
00F8
01F0
01F0
01F0
03E0
03E0
03E0
07C0
07C0
07C0
0F80
0000
0000
0000
0000
0000
ENDCHAR
STARTCHAR C201
ENCODING -1
SWIDTH 380 0
DWIDTH 8 0
BBX 15 21 -1 -5
BITMAP
0000
0000
007C
00F8
00F8
00F8
01F0
01F0
01F0
03E0
03E0
03E0
07C0
07C0
07C0
0F80
0000
0000
0000
0000
0000
ENDCHAR
STARTCHAR C202
ENCODING -1
SWIDTH 380 0
DWIDTH 8 0
BBX 15 21 -1 -5
BITMAP
0000
0000
007C
00F8
00F8
00F8
01F0
01F0
01F0
03E0
03E0
03E0
07C0
07C0
07C0
0F80
0000
0000
0000
0000
0000
ENDCHAR
STARTCHAR C203
ENCODING -1
SWIDTH 380 0
DWIDTH 8 0
BBX 15 21 -1 -5
BITMAP
0000
0000
007C
00F8
00F8
00F8
01F0
01F0
01F0
03E0
03E0
03E0
07C0
07C0
07C0
0F80
0000
0000
0000
0000
0000
ENDCHAR
STARTCHAR C204
ENCODING -1
SWIDTH 380 0
DWIDTH 8 0
BBX 15 21 -1 -5
BITMAP
0000
0000
007C
00F8
00F8
00F8
01F0
01F0
01F0
03E0
03E0
03E0
07C0
07C0
07C0
0F80
0000
0000
0000
0000
0000
ENDCHAR
STARTCHAR C205
ENCODING -1
SWIDTH 380 0
DWIDTH 8 0
BBX 15 21 -1 -5
BITMAP
0000
0000
007C
00F8
00F8
00F8
01F0
01F0
01F0
03E0
03E0
03E0
07C0
07C0
07C0
0F80
0000
0000
0000
0000
0000
ENDCHAR
STARTCHAR C206
ENCODING -1
SWIDTH 380 0
DWIDTH 8 0
BBX 15 21 -1 -5
BITMAP
0000
0000
007C
00F8
00F8
00F8
01F0
01F0
01F0
03E0
03E0
03E0
07C0
07C0
07C0
0F80
0000
0000
0000
0000
0000
ENDCHAR
STARTCHAR C207
ENCODING -1
SWIDTH 380 0
DWIDTH 8 0
BBX 15 21 -1 -5
BITMAP
0000
0000
007C
00F8
00F8
00F8
01F0
01F0
01F0
03E0
03E0
03E0
07C0
07C0
07C0
0F80
0000
0000
0000
0000
0000
ENDCHAR
STARTCHAR C210
ENCODING -1
SWIDTH 380 0
DWIDTH 8 0
BBX 15 21 -1 -5
BITMAP
0000
0000
007C
00F8
00F8
00F8
01F0
01F0
01F0
03E0
03E0
03E0
07C0
07C0
07C0
0F80
0000
0000
0000
0000
0000
ENDCHAR
STARTCHAR C211
ENCODING -1
SWIDTH 380 0
DWIDTH 8 0
BBX 15 21 -1 -5
BITMAP
0000
0000
007C
00F8
00F8
00F8
01F0
01F0
01F0
03E0
03E0
03E0
07C0
07C0
07C0
0F80
0000
0000
0000
0000
0000
ENDCHAR
STARTCHAR C212
ENCODING -1
SWIDTH 380 0
DWIDTH 8 0
BBX 15 21 -1 -5
BITMAP
0000
0000
007C
00F8
00F8
00F8
01F0
01F0
01F0
03E0
03E0
03E0
07C0
07C0
07C0
0F80
0000
0000
0000
0000
0000
ENDCHAR
STARTCHAR C213
ENCODING -1
SWIDTH 380 0
DWIDTH 8 0
BBX 15 21 -1 -5
BITMAP
0000
0000
007C
00F8
00F8
00F8
01F0
01F0
01F0
03E0
03E0
03E0
07C0
07C0
07C0
0F80
0000
0000
0000
0000
0000
ENDCHAR
STARTCHAR C214
ENCODING -1
SWIDTH 380 0
DWIDTH 8 0
BBX 15 21 -1 -5
BITMAP
0000
0000
007C
00F8
00F8
00F8
01F0
01F0
01F0
03E0
03E0
03E0
07C0
07C0
07C0
0F80
0000
0000
0000
0000
0000
ENDCHAR
STARTCHAR C215
ENCODING -1
SWIDTH 380 0
DWIDTH 8 0
BBX 15 21 -1 -5
BITMAP
0000
0000
007C
00F8
00F8
00F8
01F0
01F0
01F0
03E0
03E0
03E0
07C0
07C0
07C0
0F80
0000
0000
0000
0000
0000
ENDCHAR
STARTCHAR C216
ENCODING -1
SWIDTH 380 0
DWIDTH 8 0
BBX 15 21 -1 -5
BITMAP
0000
0000
007C
00F8
00F8
00F8
01F0
01F0
01F0
03E0
03E0
03E0
07C0
07C0
07C0
0F80
0000
0000
0000
0000
0000
ENDCHAR
STARTCHAR C217
ENCODING -1
SWIDTH 380 0
DWIDTH 8 0
BBX 15 21 -1 -5
BITMAP
0000
0000
007C
00F8
00F8
00F8
01F0
01F0
01F0
03E0
03E0
03E0
07C0
07C0
07C0
0F80
0000
0000
0000
0000
0000
ENDCHAR
STARTCHAR C220
ENCODING -1
SWIDTH 380 0
DWIDTH 8 0
BBX 15 21 -1 -5
BITMAP
0000
0000
007C
00F8
00F8
00F8
01F0
01F0
01F0
03E0
03E0
03E0
07C0
07C0
07C0
0F80
0000
0000
0000
0000
0000
ENDCHAR
STARTCHAR C221
ENCODING -1
SWIDTH 238 0
DWIDTH 5 0
BBX 12 21 -1 -5
BITMAP
0000
0000
0060
0180
01C0
01C0
0000
0000
0000
0000
0000
0000
0000
0000
0000
0000
0000
0000
0000
0000
0000
ENDCHAR
STARTCHAR C222
ENCODING -1
SWIDTH 238 0
DWIDTH 5 0
BBX 12 21 -1 -5
BITMAP
0000
0000
00E0
01C0
00C0
0180
0000
0000
0000
0000
0000
0000
0000
0000
0000
0000
0000
0000
0000
0000
0000
ENDCHAR
STARTCHAR C223
ENCODING -1
SWIDTH 380 0
DWIDTH 8 0
BBX 15 21 -1 -5
BITMAP
0000
0000
007C
00F8
00F8
00F8
01F0
01F0
01F0
03E0
03E0
03E0
07C0
07C0
07C0
0F80
0000
0000
0000
0000
0000
ENDCHAR
STARTCHAR C224
ENCODING -1
SWIDTH 380 0
DWIDTH 8 0
BBX 15 21 -1 -5
BITMAP
0000
0000
007C
00F8
00F8
00F8
01F0
01F0
01F0
03E0
03E0
03E0
07C0
07C0
07C0
0F80
0000
0000
0000
0000
0000
ENDCHAR
STARTCHAR C225
ENCODING -1
SWIDTH 380 0
DWIDTH 8 0
BBX 15 21 -1 -5
BITMAP
0000
0000
007C
00F8
00F8
00F8
01F0
01F0
01F0
03E0
03E0
03E0
07C0
07C0
07C0
0F80
0000
0000
0000
0000
0000
ENDCHAR
STARTCHAR C226
ENCODING -1
SWIDTH 380 0
DWIDTH 8 0
BBX 15 21 -1 -5
BITMAP
0000
0000
007C
00F8
00F8
00F8
01F0
01F0
01F0
03E0
03E0
03E0
07C0
07C0
07C0
0F80
0000
0000
0000
0000
0000
ENDCHAR
STARTCHAR C227
ENCODING -1
SWIDTH 380 0
DWIDTH 8 0
BBX 15 21 -1 -5
BITMAP
0000
0000
007C
00F8
00F8
00F8
01F0
01F0
01F0
03E0
03E0
03E0
07C0
07C0
07C0
0F80
0000
0000
0000
0000
0000
ENDCHAR
STARTCHAR C230
ENCODING -1
SWIDTH 380 0
DWIDTH 8 0
BBX 15 21 -1 -5
BITMAP
0000
0000
007C
00F8
00F8
00F8
01F0
01F0
01F0
03E0
03E0
03E0
07C0
07C0
07C0
0F80
0000
0000
0000
0000
0000
ENDCHAR
STARTCHAR C231
ENCODING -1
SWIDTH 380 0
DWIDTH 8 0
BBX 15 21 -1 -5
BITMAP
0000
0000
007C
00F8
00F8
00F8
01F0
01F0
01F0
03E0
03E0
03E0
07C0
07C0
07C0
0F80
0000
0000
0000
0000
0000
ENDCHAR
STARTCHAR C232
ENCODING -1
SWIDTH 380 0
DWIDTH 8 0
BBX 15 21 -1 -5
BITMAP
0000
0000
007C
00F8
00F8
00F8
01F0
01F0
01F0
03E0
03E0
03E0
07C0
07C0
07C0
0F80
0000
0000
0000
0000
0000
ENDCHAR
STARTCHAR C233
ENCODING -1
SWIDTH 380 0
DWIDTH 8 0
BBX 15 21 -1 -5
BITMAP
0000
0000
007C
00F8
00F8
00F8
01F0
01F0
01F0
03E0
03E0
03E0
07C0
07C0
07C0
0F80
0000
0000
0000
0000
0000
ENDCHAR
STARTCHAR C234
ENCODING 176
SWIDTH 380 0
DWIDTH 8 0
BBX 15 21 -1 -5
BITMAP
0000
0000
007C
00F8
00F8
00F8
01F0
01F0
01F0
03E0
03E0
03E0
07C0
07C0
07C0
0F80
0000
0000
0000
0000
0000
ENDCHAR
STARTCHAR C235
ENCODING 178
SWIDTH 380 0
DWIDTH 8 0
BBX 15 21 -1 -5
BITMAP
0000
0000
007C
00F8
00F8
00F8
01F0
01F0
01F0
03E0
03E0
03E0
07C0
07C0
07C0
0F80
0000
0000
0000
0000
0000
ENDCHAR
STARTCHAR C236
ENCODING -1
SWIDTH 380 0
DWIDTH 8 0
BBX 15 21 -1 -5
BITMAP
0000
0000
007C
00F8
00F8
00F8
01F0
01F0
01F0
03E0
03E0
03E0
07C0
07C0
07C0
0F80
0000
0000
0000
0000
0000
ENDCHAR
STARTCHAR C237
ENCODING -1
SWIDTH 380 0
DWIDTH 8 0
BBX 15 21 -1 -5
BITMAP
0000
0000
007C
00F8
00F8
00F8
01F0
01F0
01F0
03E0
03E0
03E0
07C0
07C0
07C0
0F80
0000
0000
0000
0000
0000
ENDCHAR
STARTCHAR C240
ENCODING 160
SWIDTH 238 0
DWIDTH 5 0
BBX 12 21 -1 -5
BITMAP
0000
0000
0000
0000
0000
0000
0000
0000
0000
0000
0000
0000
0000
0000
0000
0000
0000
0000
0000
0000
0000
ENDCHAR
STARTCHAR exclamdown
ENCODING 161
SWIDTH 619 0
DWIDTH 13 0
BBX 20 21 -1 -5
BITMAP
007380
007380
000000
01FF80
00E180
00E000
01C000
01C000
01C600
03FC00
038C00
038000
070000
070000
070600
1FF800
000000
000000
000000
000000
000000
ENDCHAR
STARTCHAR cent
ENCODING 162
SWIDTH 476 0
DWIDTH 10 0
BBX 17 21 -1 -5
BITMAP
000000
000000
000000
000000
000000
000000
000C00
00F800
01DC00
077800
076000
07C000
0F8000
0F3000
077000
1F8000
000000
000000
000000
000000
000000
ENDCHAR
STARTCHAR sterling
ENCODING 163
SWIDTH 476 0
DWIDTH 10 0
BBX 17 21 -1 -5
BITMAP
000000
000000
000000
00FC00
01EE00
01CE00
038000
038000
07F800
038000
038000
038000
070000
0F1800
17F800
3DE000
000000
000000
000000
000000
000000
ENDCHAR
STARTCHAR currency
ENCODING 164
SWIDTH 476 0
DWIDTH 10 0
BBX 17 21 -1 -5
BITMAP
000000
000000
000000
027B00
03FF00
01CE00
070E00
070E00
070E00
073800
0FFC00
09EC00
000000
000000
000000
000000
000000
000000
000000
000000
000000
ENDCHAR
STARTCHAR yen
ENCODING 165
SWIDTH 476 0
DWIDTH 10 0
BBX 17 21 -1 -5
BITMAP
000000
000000
000000
03EF00
038600
01C600
039800
01D800
01F000
03E000
0FF800
01C000
1FF000
038000
038000
0F8000
000000
000000
000000
000000
000000
ENDCHAR
STARTCHAR brokenbar
ENCODING 166
SWIDTH 238 0
DWIDTH 5 0
BBX 12 21 -1 -5
BITMAP
0000
0000
00E0
01C0
01C0
01C0
0380
0380
0380
0000
0000
0000
0E00
0E00
0E00
1C00
1C00
0000
0000
0000
0000
ENDCHAR
STARTCHAR section
ENCODING 167
SWIDTH 476 0
DWIDTH 10 0
BBX 17 21 -1 -5
BITMAP
000000
000000
003E00
00EE00
00EE00
00E000
00E000
01F000
03B800
077800
07B800
03B800
03E000
01C000
00E000
1DC000
1DC000
0F8000
000000
000000
000000
ENDCHAR
STARTCHAR dieresis
ENCODING 168
SWIDTH 333 0
DWIDTH 7 0
BBX 14 21 -1 -5
BITMAP
0000
0000
01DC
03B8
0000
0000
0000
0000
0000
0000
0000
0000
0000
0000
0000
0000
0000
0000
0000
0000
0000
ENDCHAR
STARTCHAR copyright
ENCODING 191
SWIDTH 714 0
DWIDTH 15 0
BBX 22 21 -1 -5
BITMAP
000000
000000
000000
003F00
00E1C0
018060
033CC0
047760
04E360
09C0C0
09C6C0
08ECC0
0CF300
0C0300
070E00
03F000
000000
000000
000000
000000
000000
ENDCHAR
STARTCHAR ordfeminine
ENCODING 170
SWIDTH 285 0
DWIDTH 6 0
BBX 13 21 -1 -5
BITMAP
0000
0000
0000
01C0
0260
00E0
07C0
04C0
07E0
0000
0FC0
0000
0000
0000
0000
0000
0000
0000
0000
0000
0000
ENDCHAR
STARTCHAR guillemotleft
ENCODING 171
SWIDTH 476 0
DWIDTH 10 0
BBX 17 21 -1 -5
BITMAP
000000
000000
000000
000000
000000
000000
000000
000000
00CC00
03B800
077000
0EE000
0EE000
077000
033000
000000
000000
000000
000000
000000
000000
ENDCHAR
STARTCHAR logicalnot
ENCODING 172
SWIDTH 523 0
DWIDTH 11 0
BBX 18 21 -1 -5
BITMAP
000000
000000
000000
000000
000000
000000
000000
000000
000000
07FC00
07FC00
001C00
000000
000000
000000
000000
000000
000000
000000
000000
000000
ENDCHAR
STARTCHAR hyphen
ENCODING 173
SWIDTH 333 0
DWIDTH 7 0
BBX 14 21 -1 -5
BITMAP
0000
0000
0000
0000
0000
0000
0000
0000
0000
07C0
07C0
0000
0000
0000
0000
0000
0000
0000
0000
0000
0000
ENDCHAR
STARTCHAR registered
ENCODING 174
SWIDTH 714 0
DWIDTH 15 0
BBX 22 21 -1 -5
BITMAP
000000
000000
000000
003F00
00E1C0
018060
03FEC0
047760
047760
08FCC0
08FCC0
08EEC0
0FEF00
0C0300
070E00
03F000
000000
000000
000000
000000
000000
ENDCHAR
STARTCHAR macron
ENCODING 175
SWIDTH 476 0
DWIDTH 10 0
BBX 17 21 -1 -5
BITMAP
000000
000000
01FF80
000000
000000
000000
000000
000000
000000
000000
000000
000000
000000
000000
000000
000000
000000
000000
000000
000000
000000
ENDCHAR
STARTCHAR degree
ENCODING 156
SWIDTH 285 0
DWIDTH 6 0
BBX 13 21 -1 -5
BITMAP
0000
0000
00F0
03F0
0230
03F0
03C0
0000
0000
0000
0000
0000
0000
0000
0000
0000
0000
0000
0000
0000
0000
ENDCHAR
STARTCHAR plusminus
ENCODING 177
SWIDTH 523 0
DWIDTH 11 0
BBX 18 21 -1 -5
BITMAP
000000
000000
000000
000000
000000
003800
007000
007000
03FE00
07FC00
00E000
00E000
01C000
000000
0FF800
1FF000
000000
000000
000000
000000
000000
ENDCHAR
STARTCHAR twosuperior
ENCODING 157
SWIDTH 285 0
DWIDTH 6 0
BBX 13 21 -1 -5
BITMAP
0000
0000
00F0
0270
0070
00E0
0380
07E0
0000
0000
0000
0000
0000
0000
0000
0000
0000
0000
0000
0000
0000
ENDCHAR
STARTCHAR threesuperior
ENCODING 179
SWIDTH 285 0
DWIDTH 6 0
BBX 13 21 -1 -5
BITMAP
0000
0000
00F0
0270
00E0
0070
07E0
03C0
0000
0000
0000
0000
0000
0000
0000
0000
0000
0000
0000
0000
0000
ENDCHAR
STARTCHAR acute
ENCODING 180
SWIDTH 333 0
DWIDTH 7 0
BBX 14 21 -1 -5
BITMAP
0000
0000
0038
00E0
0180
0000
0000
0000
0000
0000
0000
0000
0000
0000
0000
0000
0000
0000
0000
0000
0000
ENDCHAR
STARTCHAR mu
ENCODING 181
SWIDTH 476 0
DWIDTH 10 0
BBX 17 21 -1 -5
BITMAP
000000
000000
000000
000000
000000
000000
000000
07BC00
039C00
073800
073800
073800
0E7000
0E7000
0FF800
1F6000
1C0000
1C0000
380000
380000
000000
ENDCHAR
STARTCHAR paragraph
ENCODING 182
SWIDTH 428 0
DWIDTH 9 0
BBX 16 21 -1 -5
BITMAP
0000
0000
0000
0000
01FC
03D8
07B0
07B0
03B0
0360
0360
0360
06C0
06C0
06C0
0D80
0D80
0D80
0000
0000
0000
ENDCHAR
STARTCHAR periodcentered
ENCODING 183
SWIDTH 238 0
DWIDTH 5 0
BBX 12 21 -1 -5
BITMAP
0000
0000
0000
0000
0000
0000
0000
0000
0380
0700
0000
0000
0000
0000
0000
0000
0000
0000
0000
0000
0000
ENDCHAR
STARTCHAR cedilla
ENCODING 184
SWIDTH 333 0
DWIDTH 7 0
BBX 14 21 -1 -5
BITMAP
0000
0000
0000
0000
0000
0000
0000
0000
0000
0000
0000
0000
0000
0000
0000
0000
0C00
1E00
0E00
3C00
0000
ENDCHAR
STARTCHAR onesuperior
ENCODING 185
SWIDTH 285 0
DWIDTH 6 0
BBX 13 21 -1 -5
BITMAP
0000
0000
0070
01E0
00E0
00E0
01C0
01C0
0000
0000
0000
0000
0000
0000
0000
0000
0000
0000
0000
0000
0000
ENDCHAR
STARTCHAR ordmasculine
ENCODING 186
SWIDTH 285 0
DWIDTH 6 0
BBX 13 21 -1 -5
BITMAP
0000
0000
0000
01E0
03F0
0230
0460
07E0
03C0
0000
0FC0
0000
0000
0000
0000
0000
0000
0000
0000
0000
0000
ENDCHAR
STARTCHAR guillemotright
ENCODING 187
SWIDTH 476 0
DWIDTH 10 0
BBX 17 21 -1 -5
BITMAP
000000
000000
000000
000000
000000
000000
000000
000000
033000
077000
03B800
01DC00
077000
0EE000
0CC000
000000
000000
000000
000000
000000
000000
ENDCHAR
STARTCHAR onequarter
ENCODING 188
SWIDTH 666 0
DWIDTH 14 0
BBX 21 21 -1 -5
BITMAP
000000
000000
0038E0
00F1C0
007380
007700
00EE00
00FC00
003800
007000
00EF00
01DF00
03FE00
077F00
0E0E00
1C1C00
000000
000000
000000
000000
000000
ENDCHAR
STARTCHAR onehalf
ENCODING 189
SWIDTH 666 0
DWIDTH 14 0
BBX 21 21 -1 -5
BITMAP
000000
000000
0038E0
00F1C0
007380
007700
00EE00
00FC00
003800
007000
00EF00
01DB80
038700
070E00
0E1800
1C7E00
000000
000000
000000
000000
000000
ENDCHAR
STARTCHAR threequarters
ENCODING 190
SWIDTH 666 0
DWIDTH 14 0
BBX 21 21 -1 -5
BITMAP
000000
000000
00F0E0
0071C0
00E380
007700
00EE00
03DC00
003800
007000
00EF00
01DF00
03FE00
077F00
0E0E00
1C1C00
000000
000000
000000
000000
000000
ENDCHAR
STARTCHAR questiondown
ENCODING 169
SWIDTH 476 0
DWIDTH 10 0
BBX 17 21 -1 -5
BITMAP
000000
000000
000000
000000
00FC00
00FC00
000000
00F000
01F800
073800
07F800
070000
0E0000
0E3000
077000
07C000
000000
000000
000000
000000
000000
ENDCHAR
STARTCHAR cyr-A
ENCODING 225
SWIDTH 619 0
DWIDTH 13 0
BBX 20 21 -1 -5
BITMAP
000000
000000
000000
001800
001C00
003C00
007C00
007C00
00DC00
019C00
031C00
03FE00
061C00
0C1C00
0C0E00
3C3E00
000000
000000
000000
000000
000000
ENDCHAR
STARTCHAR cyr-Be
ENCODING 226
SWIDTH 666 0
DWIDTH 14 0
BBX 21 21 -1 -5
BITMAP
000000
000000
000000
01FFE0
00E0E0
00E060
01C000
01C000
01FF00
038700
038380
038380
070700
070700
070E00
1FF800
000000
000000
000000
000000
000000
ENDCHAR
STARTCHAR cyr-Ve
ENCODING 247
SWIDTH 666 0
DWIDTH 14 0
BBX 21 21 -1 -5
BITMAP
000000
000000
000000
01FE00
00E380
00E1C0
01C380
01C380
01C700
03FE00
038700
038380
070700
070700
070E00
1FF000
000000
000000
000000
000000
000000
ENDCHAR
STARTCHAR cyr-Ghe
ENCODING 231
SWIDTH 619 0
DWIDTH 13 0
BBX 20 21 -1 -5
BITMAP
000000
000000
000000
01FFC0
00E1C0
00E0C0
01C000
01C000
01C000
038000
038000
038000
070000
070000
070000
1F0000
000000
000000
000000
000000
000000
ENDCHAR
STARTCHAR cyr-De
ENCODING 228
SWIDTH 666 0
DWIDTH 14 0
BBX 21 21 -1 -5
BITMAP
000000
000000
000000
00FFE0
0061C0
0061C0
00C380
00C380
00C380
018700
018700
018700
030E00
030E00
060E00
1FFE00
180600
180600
000000
000000
000000
ENDCHAR
STARTCHAR cyr-Ie
ENCODING 229
SWIDTH 619 0
DWIDTH 13 0
BBX 20 21 -1 -5
BITMAP
000000
000000
000000
01FF80
00E180
00E000
01C000
01C000
01C600
03FC00
038C00
038000
070000
070000
070600
1FFC00
000000
000000
000000
000000
000000
ENDCHAR
STARTCHAR cyr-Zhe
ENCODING 246
SWIDTH 857 0
DWIDTH 18 0
BBX 25 21 -1 -5
BITMAP
00000000
00000000
00000000
01E7CF00
01F39F00
00339800
00376000
00376000
001FC000
00EEE000
01CE7000
01CE7000
071C7000
071C7000
071C7000
1F7DF000
00000000
00000000
00000000
00000000
00000000
ENDCHAR
STARTCHAR cyr-Ze
ENCODING 250
SWIDTH 619 0
DWIDTH 13 0
BBX 20 21 -1 -5
BITMAP
000000
000000
000000
007C00
01C700
018380
000700
000700
000E00
00FC00
000E00
000700
000E00
0C0E00
0E1C00
07E000
000000
000000
000000
000000
000000
ENDCHAR
STARTCHAR cyr-I
ENCODING 233
SWIDTH 714 0
DWIDTH 15 0
BBX 22 21 -1 -5
BITMAP
000000
000000
000000
01F1F0
00E1E0
00E3E0
01C7C0
01CDC0
01CDC0
03B380
03B380
03E380
07C700
078700
078700
1F1F00
000000
000000
000000
000000
000000
ENDCHAR
STARTCHAR cyr-I-short
ENCODING 234
SWIDTH 714 0
DWIDTH 15 0
BBX 22 21 -1 -5
BITMAP
001DC0
000F80
000000
01F1F0
00E1E0
00E3E0
01C7C0
01CDC0
01CDC0
03B380
03B380
03E380
07C700
078700
078700
1F1F00
000000
000000
000000
000000
000000
ENDCHAR
STARTCHAR cyr-Ka
ENCODING 235
SWIDTH 619 0
DWIDTH 13 0
BBX 20 21 -1 -5
BITMAP
000000
000000
000000
01F3C0
00E7C0
00E600
01D800
01D800
01F000
03B800
039C00
039C00
071C00
071C00
071C00
1F7C00
000000
000000
000000
000000
000000
ENDCHAR
STARTCHAR cyr-El
ENCODING 236
SWIDTH 666 0
DWIDTH 14 0
BBX 21 21 -1 -5
BITMAP
000000
000000
000000
00FFE0
0061C0
0061C0
00C380
00C380
00C380
018700
018700
018700
030E00
030E00
1F0E00
3C3E00
000000
000000
000000
000000
000000
ENDCHAR
STARTCHAR cyr-Em
ENCODING 237
SWIDTH 809 0
DWIDTH 17 0
BBX 24 21 -1 -5
BITMAP
000000
000000
000000
01F07C
00F078
00F8F8
01F1F0
01F1F0
01BB70
0376E0
0376E0
033CE0
0679C0
0679C0
0631C0
1E67C0
000000
000000
000000
000000
000000
ENDCHAR
STARTCHAR cyr-En
ENCODING 238
SWIDTH 714 0
DWIDTH 15 0
BBX 22 21 -1 -5
BITMAP
000000
000000
000000
01F1F0
00E0E0
00E0E0
01C1C0
01C1C0
01C1C0
03FF80
038380
038380
070700
070700
070700
1F1F00
000000
000000
000000
000000
000000
ENDCHAR
STARTCHAR cyr-O
ENCODING 239
SWIDTH 714 0
DWIDTH 15 0
BBX 22 21 -1 -5
BITMAP
000000
000000
000000
001F00
0071C0
00E0E0
01C1C0
0380E0
0380E0
0701C0
0701C0
0701C0
070700
070700
038E00
01F000
000000
000000
000000
000000
000000
ENDCHAR
STARTCHAR cyr-Pe
ENCODING 240
SWIDTH 714 0
DWIDTH 15 0
BBX 22 21 -1 -5
BITMAP
000000
000000
000000
01FFF0
00E0E0
00E0E0
01C1C0
01C1C0
01C1C0
038380
038380
038380
070700
070700
070700
1F1F00
000000
000000
000000
000000
000000
ENDCHAR
STARTCHAR cyr-Er
ENCODING 242
SWIDTH 666 0
DWIDTH 14 0
BBX 21 21 -1 -5
BITMAP
000000
000000
000000
01FF00
00E1C0
00E0E0
01C1C0
01C1C0
01C1C0
038700
03FC00
038000
070000
070000
070000
1F0000
000000
000000
000000
000000
000000
ENDCHAR
STARTCHAR cyr-Es
ENCODING 243
SWIDTH 666 0
DWIDTH 14 0
BBX 21 21 -1 -5
BITMAP
000000
000000
000000
001FC0
0079C0
00E0C0
01C000
038000
038000
070000
070000
070000
070000
070300
03CE00
01F000
000000
000000
000000
000000
000000
ENDCHAR
STARTCHAR cyr-Te
ENCODING 244
SWIDTH 619 0
DWIDTH 13 0
BBX 20 21 -1 -5
BITMAP
000000
000000
000000
01FFC0
019CC0
001C00
003800
003800
003800
007000
007000
007000
00E000
00E000
00E000
03E000
000000
000000
000000
000000
000000
ENDCHAR
STARTCHAR cyr-U
ENCODING 245
SWIDTH 619 0
DWIDTH 13 0
BBX 20 21 -1 -5
BITMAP
000000
000000
000000
03E1E0
01C0C0
00E180
01C300
00E600
007600
00F800
007800
003000
006000
00C000
0FC000
0F0000
000000
000000
000000
000000
000000
ENDCHAR
STARTCHAR cyr-Ef
ENCODING 230
SWIDTH 809 0
DWIDTH 17 0
BBX 24 21 -1 -5
BITMAP
000000
000000
000000
001FC0
007770
00E738
01CE70
038E38
038E38
071C70
039CE0
039CE0
03BB80
00FE00
003800
00F800
000000
000000
000000
000000
000000
ENDCHAR
STARTCHAR cyr-Kha
ENCODING 232
SWIDTH 714 0
DWIDTH 15 0
BBX 22 21 -1 -5
BITMAP
000000
000000
000000
01F9F0
0070E0
0038C0
007B00
003E00
001E00
003C00
007C00
006E00
019E00
030E00
070700
1F1F00
000000
000000
000000
000000
000000
ENDCHAR
STARTCHAR cyr-Tse
ENCODING 227
SWIDTH 714 0
DWIDTH 15 0
BBX 22 21 -1 -5
BITMAP
000000
000000
000000
01F1F0
00E0E0
00E0E0
01C1C0
01C1C0
01C1C0
038380
038380
038380
070700
070700
070700
1FFF00
000300
000300
000000
000000
000000
ENDCHAR
STARTCHAR cyr-Che
ENCODING 254
SWIDTH 714 0
DWIDTH 15 0
BBX 22 21 -1 -5
BITMAP
000000
000000
000000
01F1F0
00E0E0
00E0E0
01C1C0
01C1C0
01C1C0
038380
00FF80
000380
000700
000700
000700
001F00
000000
000000
000000
000000
000000
ENDCHAR
STARTCHAR cyr-Sha
ENCODING 251
SWIDTH 857 0
DWIDTH 18 0
BBX 25 21 -1 -5
BITMAP
00000000
00000000
00000000
01F7DF00
00E38E00
00E38E00
01C71C00
01C71C00
01C71C00
038E3800
038E3800
038E3800
071C7000
071C7000
071C7000
1FFFF000
00000000
00000000
00000000
00000000
00000000
ENDCHAR
STARTCHAR cyr-Shcha
ENCODING 253
SWIDTH 857 0
DWIDTH 18 0
BBX 25 21 -1 -5
BITMAP
00000000
00000000
00000000
01F7DF00
00E38E00
00E38E00
01C71C00
01C71C00
01C71C00
038E3800
038E3800
038E3800
071C7000
071C7000
071C7000
1FFFF000
00003000
00003000
00000000
00000000
00000000
ENDCHAR
STARTCHAR cyr-Ier
ENCODING 255
SWIDTH 761 0
DWIDTH 16 0
BBX 23 21 -1 -5
BITMAP
000000
000000
000000
01FC00
01B800
01B800
007000
007000
007FC0
00E1C0
00E0E0
00E0E0
01C1C0
01C1C0
01C380
07FE00
000000
000000
000000
000000
000000
ENDCHAR
STARTCHAR cyr-Iery
ENCODING 249
SWIDTH 857 0
DWIDTH 18 0
BBX 25 21 -1 -5
BITMAP
00000000
00000000
00000000
01F03E00
00E01C00
00E01C00
01C03800
01C03800
01FF3800
03877000
0383F000
0383F000
0707E000
0707E000
070EE000
1FFBE000
00000000
00000000
00000000
00000000
00000000
ENDCHAR
STARTCHAR cyr-Ierik
ENCODING 248
SWIDTH 666 0
DWIDTH 14 0
BBX 21 21 -1 -5
BITMAP
000000
000000
000000
01F000
00E000
00E000
01C000
01C000
01FF00
038700
038380
038380
070700
070700
070E00
1FF800
000000
000000
000000
000000
000000
ENDCHAR
STARTCHAR cyr-E-rev
ENCODING 252
SWIDTH 619 0
DWIDTH 13 0
BBX 20 21 -1 -5
BITMAP
000000
000000
000000
01FF00
01C380
0181C0
000380
000380
006380
00FF00
00C700
000700
000E00
0C0E00
0E1C00
1FF000
000000
000000
000000
000000
000000
ENDCHAR
STARTCHAR cyr-Yu
ENCODING 224
SWIDTH 857 0
DWIDTH 18 0
BBX 25 21 -1 -5
BITMAP
00000000
00000000
00000000
01F0F000
00E39C00
00E70E00
01CE1C00
01DC0E00
01DC0E00
03F81C00
03B81C00
03B81C00
07387000
07387000
071CE000
1F1F0000
00000000
00000000
00000000
00000000
00000000
ENDCHAR
STARTCHAR cyr-Ya
ENCODING 241
SWIDTH 761 0
DWIDTH 16 0
BBX 23 21 -1 -5
BITMAP
000000
000000
000000
001FF8
003870
007070
00E0E0
00E0E0
0070E0
007FC0
0039C0
0071C0
01C380
038380
070380
3E0F80
000000
000000
000000
000000
000000
ENDCHAR
STARTCHAR cyr-a
ENCODING 193
SWIDTH 476 0
DWIDTH 10 0
BBX 17 21 -1 -5
BITMAP
000000
000000
000000
000000
000000
000000
000000
01F800
039C00
073800
00F800
03B800
0E7000
0E7000
0EF000
0FF000
000000
000000
000000
000000
000000
ENDCHAR
STARTCHAR cyr-be
ENCODING 194
SWIDTH 476 0
DWIDTH 10 0
BBX 17 21 -1 -5
BITMAP
000000
000180
003F00
00C000
01C000
01C000
038000
03F800
03CC00
070C00
070C00
070C00
0E1800
0E1800
0F3000
0FC000
000000
000000
000000
000000
000000
ENDCHAR
STARTCHAR cyr-ve
ENCODING 215
SWIDTH 476 0
DWIDTH 10 0
BBX 17 21 -1 -5
BITMAP
000000
000000
000000
000000
000000
000000
000000
03FC00
01C600
038C00
038C00
03F800
071800
071800
071800
1FE000
000000
000000
000000
000000
000000
ENDCHAR
STARTCHAR cyr-ghe
ENCODING 199
SWIDTH 428 0
DWIDTH 9 0
BBX 16 21 -1 -5
BITMAP
0000
0000
0000
0000
0000
0000
0000
03FC
01CC
0380
0380
0380
0700
0700
0700
1F00
0000
0000
0000
0000
0000
ENDCHAR
STARTCHAR cyr-de
ENCODING 196
SWIDTH 523 0
DWIDTH 11 0
BBX 18 21 -1 -5
BITMAP
000000
000000
000000
000000
000000
000000
000000
01FF00
00CE00
019C00
019C00
019C00
033800
033800
063800
1FF800
181800
181800
000000
000000
000000
ENDCHAR
STARTCHAR cyr-ie
ENCODING 197
SWIDTH 428 0
DWIDTH 9 0
BBX 16 21 -1 -5
BITMAP
0000
0000
0000
0000
0000
0000
0000
00F0
01F8
0738
07F8
0700
0E00
0E30
0770
07C0
0000
0000
0000
0000
0000
ENDCHAR
STARTCHAR cyr-zhe
ENCODING 214
SWIDTH 761 0
DWIDTH 16 0
BBX 23 21 -1 -5
BITMAP
000000
000000
000000
000000
000000
000000
000000
03DF78
03EEF8
00DD80
007F00
007F00
01FF00
03BB80
0739C0
1FFFC0
000000
000000
000000
000000
000000
ENDCHAR
STARTCHAR cyr-z
ENCODING 218
SWIDTH 428 0
DWIDTH 9 0
BBX 16 21 -1 -5
BITMAP
0000
0000
0000
0000
0000
0000
0000
01F8
031C
0638
0038
01F0
0070
0C70
0C70
0FC0
0000
0000
0000
0000
0000
ENDCHAR
STARTCHAR cyr-i
ENCODING 201
SWIDTH 571 0
DWIDTH 12 0
BBX 19 21 -1 -5
BITMAP
000000
000000
000000
000000
000000
000000
000000
03E780
01CF00
03BE00
03BE00
03EE00
07DC00
079C00
071C00
1F7C00
000000
000000
000000
000000
000000
ENDCHAR
STARTCHAR cyr-i-short
ENCODING 202
SWIDTH 571 0
DWIDTH 12 0
BBX 19 21 -1 -5
BITMAP
000000
000000
000000
000000
000000
003F00
003C00
03E780
01CF00
03BE00
03BE00
03EE00
07DC00
079C00
071C00
1F7C00
000000
000000
000000
000000
000000
ENDCHAR
STARTCHAR cyr-ka
ENCODING 203
SWIDTH 523 0
DWIDTH 11 0
BBX 18 21 -1 -5
BITMAP
000000
000000
000000
000000
000000
000000
000000
03EF00
01DF00
03B000
03E000
03E000
07E000
077000
073800
1F7800
000000
000000
000000
000000
000000
ENDCHAR
STARTCHAR cyr-el
ENCODING 204
SWIDTH 571 0
DWIDTH 12 0
BBX 19 21 -1 -5
BITMAP
000000
000000
000000
000000
000000
000000
000000
00FF80
006700
00CE00
00CE00
00CE00
019C00
019C00
0F9C00
1E7C00
000000
000000
000000
000000
000000
ENDCHAR
STARTCHAR cyr-em
ENCODING 205
SWIDTH 619 0
DWIDTH 13 0
BBX 20 21 -1 -5
BITMAP
000000
000000
000000
000000
000000
000000
000000
03C3C0
01E780
03CF00
03FF00
03FF00
06EE00
06EE00
060E00
1E3E00
000000
000000
000000
000000
000000
ENDCHAR
STARTCHAR cyr-en
ENCODING 206
SWIDTH 571 0
DWIDTH 12 0
BBX 19 21 -1 -5
BITMAP
000000
000000
000000
000000
000000
000000
000000
03EF80
01C700
038E00
038E00
03FE00
071C00
071C00
071C00
1F7C00
000000
000000
000000
000000
000000
ENDCHAR
STARTCHAR cyr-o
ENCODING 207
SWIDTH 476 0
DWIDTH 10 0
BBX 17 21 -1 -5
BITMAP
000000
000000
000000
000000
000000
000000
000000
00F800
019C00
071C00
071C00
071C00
0E3800
0E3800
073000
07C000
000000
000000
000000
000000
000000
ENDCHAR
STARTCHAR cyr-pe
ENCODING 208
SWIDTH 571 0
DWIDTH 12 0
BBX 19 21 -1 -5
BITMAP
000000
000000
000000
000000
000000
000000
000000
03FF80
01C700
038E00
038E00
038E00
071C00
071C00
071C00
1F7C00
000000
000000
000000
000000
000000
ENDCHAR
STARTCHAR cyr-er
ENCODING 210
SWIDTH 523 0
DWIDTH 11 0
BBX 18 21 -1 -5
BITMAP
000000
000000
000000
000000
000000
000000
000000
03FC00
01CE00
038E00
038E00
038E00
071C00
071C00
073800
0FE000
0E0000
0E0000
1C0000
3E0000
000000
ENDCHAR
STARTCHAR cyr-es
ENCODING 211
SWIDTH 428 0
DWIDTH 9 0
BBX 16 21 -1 -5
BITMAP
0000
0000
0000
0000
0000
0000
0000
00F8
01DC
0738
0700
0700
0E00
0E30
0770
07C0
0000
0000
0000
0000
0000
ENDCHAR
STARTCHAR cyr-te
ENCODING 212
SWIDTH 476 0
DWIDTH 10 0
BBX 17 21 -1 -5
BITMAP
000000
000000
000000
000000
000000
000000
000000
03FE00
037600
06EC00
00E000
00E000
01C000
01C000
01C000
07C000
000000
000000
000000
000000
000000
ENDCHAR
STARTCHAR cyr-u
ENCODING 213
SWIDTH 523 0
DWIDTH 11 0
BBX 18 21 -1 -5
BITMAP
000000
000000
000000
000000
000000
000000
000000
03EF00
01C600
038C00
01D800
01D800
01E000
01E000
00C000
018000
038000
0F0000
3E0000
1C0000
000000
ENDCHAR
STARTCHAR cyr-ef
ENCODING 198
SWIDTH 571 0
DWIDTH 12 0
BBX 19 21 -1 -5
BITMAP
000000
000000
000000
000000
000000
000000
000000
00FE00
01BB00
077700
077700
077700
0EEE00
0EEE00
06EC00
07F000
01C000
01C000
038000
038000
07C000
ENDCHAR
STARTCHAR cyr-kha
ENCODING 200
SWIDTH 476 0
DWIDTH 10 0
BBX 17 21 -1 -5
BITMAP
000000
000000
000000
000000
000000
000000
000000
03FE00
01CC00
01F000
01E000
00E000
01E000
03E000
067000
1FF000
000000
000000
000000
000000
000000
ENDCHAR
STARTCHAR cyr-tse
ENCODING 195
SWIDTH 571 0
DWIDTH 12 0
BBX 19 21 -1 -5
BITMAP
000000
000000
000000
000000
000000
000000
000000
03EF80
01C700
038E00
038E00
038E00
071C00
071C00
071C00
1FFC00
000C00
000C00
000000
000000
000000
ENDCHAR
STARTCHAR cyr-che
ENCODING 222
SWIDTH 571 0
DWIDTH 12 0
BBX 19 21 -1 -5
BITMAP
000000
000000
000000
000000
000000
000000
000000
03EF80
01C700
038E00
038E00
01FE00
001C00
001C00
001C00
007C00
000000
000000
000000
000000
000000
ENDCHAR
STARTCHAR cyr-sha
ENCODING 219
SWIDTH 761 0
DWIDTH 16 0
BBX 23 21 -1 -5
BITMAP
000000
000000
000000
000000
000000
000000
000000
03DFF8
01CE70
039CE0
039CE0
039CE0
0739C0
0739C0
0739C0
1FFFC0
000000
000000
000000
000000
000000
ENDCHAR
STARTCHAR cyr-shcha
ENCODING 221
SWIDTH 761 0
DWIDTH 16 0
BBX 23 21 -1 -5
BITMAP
000000
000000
000000
000000
000000
000000
000000
03DFF8
01CE70
039CE0
039CE0
039CE0
0739C0
0739C0
0739C0
1FFFC0
0000C0
0000C0
000000
000000
000000
ENDCHAR
STARTCHAR cyr-ier
ENCODING 223
SWIDTH 571 0
DWIDTH 12 0
BBX 19 21 -1 -5
BITMAP
000000
000000
000000
000000
000000
000000
000000
03F800
037000
06E000
00FE00
00E700
01CE00
01CE00
01CE00
07F800
000000
000000
000000
000000
000000
ENDCHAR
STARTCHAR cyr-iery
ENCODING 217
SWIDTH 714 0
DWIDTH 15 0
BBX 22 21 -1 -5
BITMAP
000000
000000
000000
000000
000000
000000
000000
03E1F0
01C0E0
0381C0
03F9C0
039DC0
073B80
073B80
073B80
1FEF80
000000
000000
000000
000000
000000
ENDCHAR
STARTCHAR cyr-ierik
ENCODING 216
SWIDTH 476 0
DWIDTH 10 0
BBX 17 21 -1 -5
BITMAP
000000
000000
000000
000000
000000
000000
000000
03E000
01C000
038000
03F800
039C00
073800
073800
073800
1FE000
000000
000000
000000
000000
000000
ENDCHAR
STARTCHAR cyr-e-rev
ENCODING 220
SWIDTH 428 0
DWIDTH 9 0
BBX 16 21 -1 -5
BITMAP
0000
0000
0000
0000
0000
0000
0000
01F8
031C
0638
0038
01F8
0070
0C70
0C70
0FC0
0000
0000
0000
0000
0000
ENDCHAR
STARTCHAR cyr-yu
ENCODING 192
SWIDTH 714 0
DWIDTH 15 0
BBX 22 21 -1 -5
BITMAP
000000
000000
000000
000000
000000
000000
000000
03E7C0
01CCE0
03B8E0
03B8E0
03F8E0
0771C0
0771C0
073980
1F3E00
000000
000000
000000
000000
000000
ENDCHAR
STARTCHAR cyr-ya
ENCODING 209
SWIDTH 523 0
DWIDTH 11 0
BBX 18 21 -1 -5
BITMAP
000000
000000
000000
000000
000000
000000
000000
01FF00
038E00
071C00
071C00
03FC00
03B800
073800
0E3800
38F800
000000
000000
000000
000000
000000
ENDCHAR
ENDFONT
